<?xml version="1.0"?>
<svg xmlns="http://www.w3.org/2000/svg" height="512px" viewBox="0 0 355.80245 355" width="512px"><g><path d="m105.355469 307.601562h-98.527344c-3.773437 0-6.828125-3.058593-6.828125-6.828124v-27.304688c0-3.769531 3.054688-6.828125 6.828125-6.828125h101.574219c3.773437 0 6.828125 3.058594 6.828125 6.828125s-3.054688 6.824219-6.828125 6.824219h-94.75v13.65625h91.703125c3.769531 0 6.828125 3.054687 6.828125 6.824219 0 3.769531-3.058594 6.828124-6.828125 6.828124zm0 0" data-original="#000000" class="active-path" data-old_color="#1b7d4f" fill="#1b7d4f"/><path d="m108.402344 280.292969h-39.515625c-3.769531 0-6.828125-3.054688-6.828125-6.824219v-81.921875c0-3.769531 3.058594-6.824219 6.828125-6.824219h47.78125v-177.496094c0-3.769531 3.058593-6.824218 6.828125-6.824218h123.078125c3.773437 0 6.828125 3.054687 6.828125 6.824218v44.378907c0 3.769531-3.054688 6.824219-6.828125 6.824219-3.769531 0-6.824219-3.054688-6.824219-6.824219v-37.550781h-109.425781v177.492187c0 3.769531-3.058594 6.828125-6.828125 6.828125h-47.785156v68.265625h32.691406c3.769531 0 6.828125 3.058594 6.828125 6.828125s-3.058594 6.824219-6.828125 6.824219zm0 0" data-original="#000000" class="active-path" data-old_color="#1b7d4f" fill="#1b7d4f"/><path d="m184.320312 95.972656c-3.769531 0-6.828124-3.054687-6.828124-6.824218v-81.921876c0-3.769531 3.058593-6.824218 6.828124-6.824218 3.769532 0 6.828126 3.054687 6.828126 6.824218v81.921876c0 3.769531-3.058594 6.824218-6.828126 6.824218zm0 0" data-original="#000000" class="active-path" data-old_color="#1b7d4f" fill="#1b7d4f"/><path d="m68.886719 280.292969h-62.058594c-3.773437 0-6.828125-3.054688-6.828125-6.824219v-34.992188c0-29.636718 23.839844-53.753906 53.148438-53.753906h15.738281c3.769531 0 6.828125 3.054688 6.828125 6.824219v81.921875c-.003906 3.769531-3.058594 6.824219-6.828125 6.824219zm-55.234375-13.652344h48.40625v-68.265625h-8.914063c-21.777343 0-39.492187 17.988281-39.492187 40.101562zm0 0" data-original="#000000" class="active-path" data-old_color="#1b7d4f" fill="#1b7d4f"/><path d="m348.976562 328.082031h-177.691406c-3.769531 0-6.824218-3.058593-6.824218-6.828125v-81.917968c0-3.769532 3.054687-6.828126 6.824218-6.828126h47.785156v-177.492187c0-3.769531 3.054688-6.828125 6.824219-6.828125h123.082031c3.769532 0 6.824219 3.058594 6.824219 6.828125v266.238281c0 3.769532-3.054687 6.828125-6.824219 6.828125zm-170.863281-13.652343h164.035157v-252.589844h-109.425782v177.496094c0 3.769531-3.054687 6.824218-6.828125 6.824218h-47.78125zm0 0" data-original="#000000" class="active-path" data-old_color="#1b7d4f" fill="#1b7d4f"/><path d="m286.71875 143.761719c-3.769531 0-6.824219-3.058594-6.824219-6.828125v-81.917969c0-3.769531 3.054688-6.828125 6.824219-6.828125s6.828125 3.058594 6.828125 6.828125v81.917969c0 3.769531-3.058594 6.828125-6.828125 6.828125zm0 0" data-original="#000000" class="active-path" data-old_color="#1b7d4f" fill="#1b7d4f"/><path d="m171.285156 328.082031h-62.058594c-3.769531 0-6.828124-3.058593-6.828124-6.828125v-34.988281c0-29.640625 23.84375-53.757813 53.148437-53.757813h15.742187c3.769532 0 6.824219 3.058594 6.824219 6.828126v81.917968c0 3.769532-3.058593 6.828125-6.828125 6.828125zm-55.230468-13.652343h48.40625v-68.269532h-8.914063c-21.777344 0-39.496094 17.992188-39.496094 40.105469v28.164063zm0 0" data-original="#000000" class="active-path" data-old_color="#1b7d4f" fill="#1b7d4f"/><path d="m286.71875 180.011719c-12.460938 0-22.59375-10.136719-22.59375-22.597657 0-12.460937 10.132812-22.597656 22.59375-22.597656s22.597656 10.136719 22.597656 22.597656c0 12.460938-10.136718 22.597657-22.597656 22.597657zm0-31.539063c-4.929688 0-8.941406 4.011719-8.941406 8.941406 0 4.929688 4.015625 8.945313 8.941406 8.945313 4.929688 0 8.945312-4.015625 8.945312-8.945313 0-4.929687-4.015624-8.941406-8.945312-8.941406zm0 0" data-original="#000000" class="active-path" data-old_color="#1b7d4f" fill="#1b7d4f"/><path d="m184.320312 132.222656c-12.460937 0-22.597656-10.132812-22.597656-22.59375 0-12.460937 10.136719-22.597656 22.597656-22.597656 12.460938 0 22.597657 10.136719 22.597657 22.597656 0 12.460938-10.136719 22.59375-22.597657 22.59375zm0-31.539062c-4.929687 0-8.941406 4.015625-8.941406 8.945312 0 4.929688 4.011719 8.941406 8.941406 8.941406 4.929688 0 8.941407-4.011718 8.941407-8.941406 0-4.929687-4.011719-8.945312-8.941407-8.945312zm0 0" data-original="#000000" class="active-path" data-old_color="#1b7d4f" fill="#1b7d4f"/><path d="m348.160156 355.386719h-238.933594c-3.769531 0-6.828124-3.054688-6.828124-6.824219v-27.308594c0-3.769531 3.058593-6.824218 6.828124-6.824218h238.933594c3.769532 0 6.828125 3.054687 6.828125 6.824218v27.308594c0 3.769531-3.058593 6.824219-6.828125 6.824219zm-232.105468-13.652344h225.277343v-13.652344h-225.277343zm0 0" data-original="#000000" class="active-path" data-old_color="#1b7d4f" fill="#1b7d4f"/></g> </svg>
