<?xml version="1.0"?>
<svg xmlns="http://www.w3.org/2000/svg" id="icons" enable-background="new 0 0 64 64" height="512px" viewBox="0 0 64 64" width="512px" class=""><g><path d="m11 34.007c3.318 0 6.366-1.461 8.464-4.001h3.532v5.686l-2.451 3.592c-.02.027-.038.055-.057.083l-.014.02c-.005.007-.005.016-.01.022-.291.463-.467 1.006-.467 1.592v5.003c0 .553.447 1 1 1 .002 0 .003-.001.005-.001h1.995v2.997c0 .553.447 1 1 1h16.004c.553 0 1-.447 1-1v-2.998h1.993c.002 0 .003.001.005.001.553 0 1-.447 1-1v-5.003c0-.586-.176-1.129-.467-1.592-.005-.007-.005-.016-.01-.022l-.014-.02c-.019-.028-.037-.056-.057-.083l-2.455-3.598v-5.678h3.539c2.099 2.54 5.146 3.999 8.463 3.999 6.065 0 11-4.935 11-11s-4.935-11-11-11c-3.314 0-6.359 1.457-8.457 3.992h-3.545v-10.998h.494c1.379 0 2.5-1.121 2.5-2.5s-1.119-2.5-2.498-2.5h-18.994c-1.379 0-2.5 1.121-2.5 2.5s1.121 2.5 2.5 2.5h.498v11.008h-3.531c-2.099-2.541-5.147-4.001-8.465-4.001-6.065 0-11 4.935-11 11s4.935 11 11 11zm28.002 14.993h-14.004v-1.998h14.004zm13.998-34.993c4.963 0 9 4.037 9 9s-4.037 9-9 9c-2.102 0-4.073-.714-5.654-1.999h5.652c3.861 0 7.002-3.141 7.002-7.001 0-3.845-3.116-6.974-6.957-6.999-.016 0-.029-.009-.045-.009h-5.643c1.58-1.28 3.548-1.992 5.645-1.992zm-.036 3.992c.013 0 .022.007.034.007 2.758 0 5.002 2.243 5.002 5.001s-2.244 5.001-5.002 5.001h-12v-10.009zm-30.466-14.999c-.275 0-.5-.225-.5-.5s.225-.5.5-.5h18.994c.275 0 .5.225.5.5s-.224.5-.5.5zm16.5 7.999v24.001h-14.002v-24.001zm-14.002-2v-3.999h14.002v3.999zm14.478 28.001.683 1h-16.315l.683-1zm-16.476 3h18.002c.552 0 1 .448 1 1v4.002h-1.993c-.002 0-.003-.001-.005-.001s-.003.001-.005.001h-15.994c-.002 0-.003-.001-.005-.001s-.003.001-.005.001h-1.995v-4.002c0-.552.448-1 1-1zm-.002-21.992v9.998h-11.994c-.004 0-.006.002-.01.002-2.753-.006-4.992-2.246-4.992-5.001s2.239-4.995 4.992-5.001c.004 0 .006.002.01.002zm-11.996-4.001c2.103 0 4.075.715 5.657 2.001h-5.641c-.005 0-.01-.003-.015-.003-3.86 0-7.001 3.141-7.001 7.002s3.141 7.002 7.002 7.002c.005 0 .01-.003.015-.003h5.64c-1.581 1.286-3.555 2.001-5.656 2.001-4.963 0-9-4.037-9-9s4.036-9 8.999-9z" data-original="#000000" class="active-path" data-old_color="#ffffff" fill="#ffffff"/><path d="m32 27.001c2.206 0 4-1.794 4-4s-1.794-4-4-4-4 1.794-4 4 1.794 4 4 4zm1-5.722c.595.347 1 .985 1 1.722s-.405 1.375-1 1.722zm-2 0v3.443c-.595-.347-1-.985-1-1.722s.405-1.374 1-1.721z" data-original="#000000" class="active-path" data-old_color="#ffffff" fill="#ffffff"/><path d="m32.686 52.274c-.385-.365-.99-.365-1.375 0-.721.683-4.313 4.214-4.313 6.726 0 2.757 2.243 5 5 5s5-2.243 5-5c0-2.512-3.592-6.043-4.312-6.726zm-.688 9.726c-1.654 0-3-1.346-3-3 0-1.049 1.584-3.105 3-4.588 1.417 1.48 3 3.537 3 4.588 0 1.654-1.346 3-3 3z" data-original="#000000" class="active-path" data-old_color="#ffffff" fill="#ffffff"/></g> </svg>
