<?xml version="1.0"?>
<svg xmlns="http://www.w3.org/2000/svg" xmlns:xlink="http://www.w3.org/1999/xlink" version="1.1" id="Capa_1" x="0px" y="0px" viewBox="0 0 496.074 496.074" style="enable-background:new 0 0 496.074 496.074;" xml:space="preserve" width="512px" height="512px" class=""><g><g>
	<g>
		<g>
			<path d="M88.074,327.982c-22.091,0-40,17.909-40,40c0,22.091,17.909,40,40,40s40-17.909,40-40     C128.048,345.902,110.154,328.009,88.074,327.982z M88.074,391.982c-13.255,0-24-10.745-24-24s10.745-24,24-24s24,10.745,24,24     S101.329,391.982,88.074,391.982z" data-original="#000000" class="active-path" data-old_color="#ffffff" fill="#ffffff"/>
			<path d="M354.674,231.982h75l21.984,14.656c1.309,0.87,2.844,1.337,4.416,1.344h32c4.418,0,8-3.582,8-8v-48c0-4.418-3.582-8-8-8     h-72v-96h8c4.418,0,8-3.582,8-8v-32c0-4.418-3.582-8-8-8h-176c-2.122,0-4.156,0.844-5.656,2.344l-32,32     c-3.124,3.125-3.123,8.19,0.002,11.314c1.5,1.499,3.534,2.342,5.654,2.342h184v40h-40c-4.418,0-8,3.582-8,8v48h-40     c-4.418,0-8,3.582-8,8v32c0,4.418,3.582,8,8,8h15.4L259.37,281.51c-2.071,1.506-3.296,3.911-3.296,6.472v24h-48v-16h8     c4.418,0,8-3.582,8-8v-24h24c2.122,0,4.156-0.844,5.656-2.344l16-16l-11.312-11.312l-13.656,13.656h-20.688v-20.688l56-56     l10.344,10.344l11.312-11.312l-32-32l-11.312,11.312l10.344,10.344l-44.688,44.688v-12.688c0-4.418-3.582-8-8-8h-24v-8     c0-4.418-3.582-8-8-8h-8v-64h-16v64h-8c-4.418,0-8,3.582-8,8v24h-16c-35.33,0.04-63.96,28.67-64,64v19.408     c-46.767,13.226-73.956,61.86-60.73,108.627c13.226,46.767,61.86,73.957,108.627,60.73c35.084-9.922,60.416-40.453,63.695-76.765     h16.408v8c0,4.418,3.582,8,8,8h64c4.418,0,8-3.582,8-8v-8h18.904c13.456,55.635,69.465,89.827,125.1,76.371     c55.635-13.456,89.827-69.465,76.371-125.1c-13.456-55.635-69.465-89.827-125.1-76.371     c-46.645,11.282-79.444,53.111-79.275,101.1c0,2.704,0.2,5.352,0.408,8h-16.408v-67.928L354.674,231.982z M235.386,71.982l16-16     h164.688v16H235.386z M411.386,199.982h68.688v32h-21.6l-21.984-14.656c-1.309-0.87-2.844-1.337-4.416-1.344h-36.688     L411.386,199.982z M320.074,215.982v-16h40c4.418,0,8-3.582,8-8v-48h32v44.688l-27.312,27.312H320.074z M160.074,183.982h16v64     h-16V183.982z M112.074,218.782v29.2h-29.2C87.73,234.359,98.45,223.638,112.074,218.782z M88.074,439.982     c-39.765,0-72-32.236-72-72c0-39.765,32.235-72,72-72s72,32.235,72,72C160.03,407.729,127.82,439.938,88.074,439.982z      M192.074,359.982h-16.408c-4.171-45.278-42.122-79.94-87.592-80c-2.704,0-5.36,0.168-8,0.408v-16.408h40c4.418,0,8-3.582,8-8     v-40h16v40c0,4.418,3.582,8,8,8h8v24c0,4.418,3.582,8,8,8h24V359.982z M176.074,279.982v-16h8c4.418,0,8-3.582,8-8v-56h16v80     H176.074z M256.074,375.982h-48v-16h48V375.982z M256.074,343.982h-48v-16h48V343.982z M392.074,263.982     c48.601,0,88,39.399,88,88c0,48.601-39.399,88-88,88c-48.601,0-88-39.399-88-88C304.131,303.405,343.497,264.04,392.074,263.982z     " data-original="#000000" class="active-path" data-old_color="#ffffff" fill="#ffffff"/>
			<path d="M392.074,407.982c30.928,0,56-25.072,56-56c0-30.928-25.072-56-56-56c-30.928,0-56,25.072-56,56     C336.109,382.896,361.161,407.947,392.074,407.982z M392.074,311.982c22.091,0,40,17.909,40,40c0,22.091-17.909,40-40,40     c-22.091,0-40-17.909-40-40C352.1,329.902,369.994,312.009,392.074,311.982z" data-original="#000000" class="active-path" data-old_color="#ffffff" fill="#ffffff"/>
		</g>
	</g>
</g></g> </svg>
